<?xml version="1.0" encoding="utf-8"?>
<!-- Generator: Adobe Illustrator 26.1.0, SVG Export Plug-In . SVG Version: 6.00 Build 0)  -->
<svg version="1.1" id="Layer_1" xmlns="http://www.w3.org/2000/svg" xmlns:xlink="http://www.w3.org/1999/xlink" x="0px" y="0px"
	 viewBox="0 0 132.2 133.8" style="enable-background:new 0 0 132.2 133.8;" xml:space="preserve">
<style type="text/css">
	.st0{fill:url(#SVGID_1_);}
</style>
<linearGradient id="SVGID_1_" gradientUnits="userSpaceOnUse" x1="7.4847" y1="66.9232" x2="124.6777" y2="66.9232">
	<stop  offset="0" style="stop-color:#52D794"/>
	<stop  offset="1" style="stop-color:#00B3BD"/>
</linearGradient>
<path class="st0" d="M83.2,33.6c7.6,1.6,13.6,5.8,18.8,11.4c0.7,0.8,1.2,2,2.7,0.7c6.3-5.8,12.6-11.5,19-17.2c1.2-1,1.3-1.9,0.2-3.1
	c-3-3.3-6.2-6.3-9.8-8.9C102,7.7,88.3,4.5,73.3,4.4c-3.6,0.2-7.5,0.2-11.4,0.8C48.2,7.3,36,12.6,26,22.3c-15.7,15.1-20.9,34-17.6,55
	c3.6,23.1,17.1,38.9,38.7,47.3c14.8,5.8,30.3,6,45.7,2.3c11.9-2.9,22.2-8.8,30.5-18c1.4-1.5,2-2.5,0-4.3c-5.4-4.7-10.6-9.7-16-14.4
	c-3.7-3.3-3.8-3.2-7.4,0.4c-11.1,11.2-27,12.8-39.7,7.2c-19.8-8.7-22.1-33.8-14.2-48.8C53.9,34.3,70.1,30.8,83.2,33.6z"/>
</svg>
