<?xml version="1.0" encoding="utf-8"?>
<!-- Generator: Adobe Illustrator 26.1.0, SVG Export Plug-In . SVG Version: 6.00 Build 0)  -->
<svg version="1.1" id="Layer_1" xmlns="http://www.w3.org/2000/svg" xmlns:xlink="http://www.w3.org/1999/xlink" x="0px" y="0px"
	 viewBox="0 0 15712.3 6631" style="enable-background:new 0 0 15712.3 6631;" xml:space="preserve">
<style type="text/css">
	.st0{fill:#FFFFFF;}
	.st1{fill:url(#SVGID_1_);}
</style>
<g>
	<path class="st0" d="M12620.3,2884.7c0,215.6,4,431.2-1,646.7c-6.4,273.6-87.6,522.5-285.6,719.1
		c-157.9,156.7-355.3,237.4-574.9,270.1c-131.9,19.6-264.6,20.2-395.3,9.2c-366.5-30.8-665.6-181.7-839.7-522.4
		c-71.4-139.6-98.3-292.3-106.9-450c-24.7-450.9-2.5-902-12.2-1352.8c-1.2-56.4,12.7-75.6,72.1-74.4c182.4,3.9,364.9,2.9,547.4,0.3
		c43.4-0.6,54.7,10.3,54.5,54.2c-1.9,395.9-4.9,791.9,1.2,1187.7c1.9,124,7.8,250.2,58.7,369.6c58.3,136.8,158.7,218.2,324.6,230
		c102.2,7.3,202.7,4.6,294.9-52.2c97.9-60.4,148.3-151.1,178-257.6c30.8-110.4,24.8-223.3,24.8-335.8c0-379.3,0.9-758.6-1.1-1138
		c-0.2-45.8,9.8-58.7,57.2-58c184.5,3.1,369.1,2.6,553.6,0.2c41.3-0.5,51,11.6,50.7,51.5
		C12619.3,2416.3,12620.3,2650.5,12620.3,2884.7z"/>
	<path class="st0" d="M13068.2,3921.2c0-165.8,4-331.7-2-497.3c-2.4-66.5,19.8-75.5,78.5-74.9c288.1,3,576.3,1.2,864.4,1.4
		c95.8,0.1,189.5-12.1,283.3-33.8c152.5-35.1,237.7-207.4,209-363.4c-18.4-99.8-56.3-182.6-144.1-232.4
		c-68.7-39-147.7-54-227.2-54.2c-335.8-0.9-671.6-1.1-1007.4,0.6c-41.4,0.2-56.8-7-55.8-52.8c3.2-145,2.5-290.1,0.4-435.1
		c-0.5-36.9,7.2-49,47.1-48.8c346.2,1.8,692.5-4.4,1038.5,3.1c195.8,4.2,390.4,33.1,569.8,122.3
		c261.3,129.8,423.8,338.2,457.5,627.4c33.1,283.5-33.6,544.3-256,743c-133.1,118.9-293,187.2-468.3,222
		c-218.8,43.4-439.6,18.1-659.5,22.9c-46,1-58.6,10.8-57.7,57.7c3.2,167.8-0.5,335.7,2.3,503.5c0.9,50.2-15.5,63.8-64.3,63.1
		c-186.5-2.5-373.2-2.5-559.7,0.1c-42.8,0.6-50.2-13.9-49.8-52.4C13069.2,4269.4,13068.2,4095.3,13068.2,3921.2z"/>
	<linearGradient id="SVGID_1_" gradientUnits="userSpaceOnUse" x1="524.2094" y1="3315.5042" x2="10230.3545" y2="3315.5042">
		<stop  offset="0" style="stop-color:#52D794"/>
		<stop  offset="1" style="stop-color:#00B3BD"/>
	</linearGradient>
	<path class="st1" d="M5362.6,4423.7c0.3,50.3-11.2,67.7-64.6,66.7c-180.2-3.3-360.7-3.3-540.9,0c-53,0.9-71-10.5-70.3-67.6
		c3.3-263.1,0.1-526.3,2.6-789.4c0.5-49.3-13.4-61.3-61.5-60.8c-261.1,2.4-522.3,2.2-783.4,0.1c-44.7-0.4-59.3,8.2-58.7,56.6
		c2.7,267.3,0.2,534.6,2.4,801.8c0.4,45-8.7,60.2-57.1,59.4c-184.4-3.1-368.9-3-553.4-0.1c-48.5,0.7-58-15.9-57.9-60.7
		c1.3-743.8,1.4-1487.7-0.2-2231.5c-0.1-49.8,13.9-62.9,62.8-62.2c182.4,2.8,364.8,2.6,547.1,0c45.4-0.6,59.4,9.6,58.9,57.6
		c-2.7,254.8-0.4,509.7-2.1,764.5c-0.3,42.5,4.9,60.7,55.4,60.1c263.2-3,526.4-2.6,789.6-0.3c46.8,0.4,58.6-12,58.2-58.4
		c-2.4-254.8,0-509.7-2.2-764.5c-0.4-46.9,13.2-59.7,59.6-59.1c184.4,2.5,368.9,2.8,553.4-0.1c49.4-0.8,62.8,13.2,62.5,62.5
		c-2,372.9-1.1,745.8-1.1,1118.8C5361.5,3686.1,5360.5,4054.9,5362.6,4423.7z M2005.7,2664.2c147.8,32.1,265.9,114.5,368.4,222.3
		c14.1,14.8,24.4,40,53.1,13.5c123.1-113.2,247.4-225.1,372.2-336.4c22.9-20.5,25.3-36.8,4.4-59.8
		c-58.5-64.3-121.9-122.6-192.2-173.9c-236.6-172.7-505.9-236-799.4-237.6c-70.1,4.8-146.3,3-222.2,14.8
		c-268.2,41.4-507.2,146-703,334.7C580,2737.7,478.6,3106.8,542.4,3519c70.2,452.7,335.1,761.1,757.8,926.3
		c289.9,113.2,592.8,117.8,894,45c233.4-56.4,435.4-171.8,597.3-352.9c26.9-30.1,38.6-49.9,0-83.2
		c-106.4-91.6-207.3-189.6-313-282.1c-72.8-63.8-75.1-62.1-144.7,7.9c-217.5,219.1-528.9,250.7-776.3,141.9
		C1169,3751,1124.9,3260.2,1280,2965.8C1432.1,2677.1,1749.8,2608.6,2005.7,2664.2z M7755.3,3314
		c-167.1-377.4-333-755.2-498.3-1133.3c-14.6-33.4-33.7-44.8-70.1-44.4c-176.2,1.9-352.5,4.8-528.4-1.2
		c-67.4-2.3-95.3,25.7-117.9,81.2c-49.6,121.7-102.5,242.2-155.7,362.4c-101.5,229.4-204.7,458.1-306.3,687.4
		c-137.3,310.2-273.8,620.8-410.4,931.3c-41.9,95.1-82.8,190.6-126.7,291.8c221.8,0,433.1-1.3,644.4,1.2
		c37.5,0.4,44.8-21.7,54.5-45.8c148.1-367.6,295.8-735.4,443.5-1103.1c71.8-178.8,143.5-357.7,218.9-545.7
		c100.8,251.1,198,493.1,295,735.1c121.5,303.3,243.5,606.5,363.5,910.4c14.3,36.3,32,49.3,71.6,48.9c194.8-2.2,389.6-0.9,584.5-1.2
		c18.1,0,37.7,5.5,54.1-10.4c-19.7-46.1-38.8-92.9-59.3-139.2C8060,3997.5,7906.8,3656.1,7755.3,3314z M10163.4,2136.9
		c-329.7,2.1-659.4,1.1-989.1,1.1c-333.9,0-667.7,0.8-1001.6-1c-43.7-0.2-55.7,11.5-54.8,55c2.8,138.8,2.9,277.8,0,416.6
		c-1,45.2,9,59.9,57.3,59.2c201.1-3,402.3,0.9,603.3-2.7c53.5-1,63.4,14.9,63.2,65.2c-1.9,561.7-0.5,1123.5-2.2,1685.2
		c-0.2,53.6,8.6,76,69.9,74.5c178.2-4.5,356.7-4.4,534.9,0.1c58,1.5,66.2-17.8,66-69.5c-1.8-565.9-0.5-1131.8-2.3-1697.7
		c-0.2-46.7,11.4-58.2,57.8-57.5c203.2,2.8,406.4-0.2,609.6,2.3c44.4,0.5,55.3-12.6,54.5-55.6c-2.8-136.8-3.6-273.7,0.3-410.4
		C10231.8,2148,10213.6,2136.6,10163.4,2136.9z"/>
</g>
</svg>
