<?xml version="1.0" encoding="utf-8"?>
<!-- Generator: Adobe Illustrator 26.1.0, SVG Export Plug-In . SVG Version: 6.00 Build 0)  -->
<svg version="1.1" id="Layer_1" xmlns="http://www.w3.org/2000/svg" xmlns:xlink="http://www.w3.org/1999/xlink" x="0px" y="0px"
	 viewBox="0 0 4500 4000" style="enable-background:new 0 0 4500 4000;" xml:space="preserve">
<style type="text/css">
	.st0{fill:#075F56;}
	.st1{fill:#222F3E;}
</style>
<g>
	<path class="st0" d="M1609.19,2000.47c0,94.73-0.24,189.47,0.28,284.2c0.07,12.91-2.88,17.4-16.59,17.14
		c-46.3-0.86-92.64-0.84-138.94-0.01c-13.62,0.24-18.24-2.7-18.06-17.36c0.85-67.58,0.03-135.18,0.68-202.76
		c0.12-12.66-3.45-15.74-15.81-15.62c-67.07,0.61-134.16,0.57-201.24,0.02c-11.49-0.1-15.22,2.1-15.09,14.53
		c0.7,68.65,0.05,137.31,0.61,205.96c0.09,11.57-2.23,15.46-14.67,15.25c-47.37-0.8-94.77-0.76-142.14-0.03
		c-12.46,0.19-14.9-4.08-14.88-15.58c0.33-191.06,0.36-382.13-0.05-573.19c-0.03-12.78,3.58-16.16,16.12-15.97
		c46.84,0.71,93.7,0.67,140.54,0.01c11.67-0.16,15.25,2.47,15.12,14.8c-0.69,65.45-0.09,130.92-0.55,196.38
		c-0.08,10.92,1.25,15.59,14.22,15.45c67.6-0.77,135.22-0.67,202.83-0.07c12.01,0.11,15.06-3.08,14.95-15
		c-0.61-65.46,0.01-130.92-0.56-196.38c-0.11-12.05,3.39-15.34,15.3-15.17c47.37,0.65,94.77,0.71,142.14-0.03
		c12.68-0.2,16.12,3.39,16.06,16.05C1608.95,1808.87,1609.19,1904.67,1609.19,2000.47z"/>
	<path class="st1" d="M3473.74,1889.36c0,55.37,1.04,110.77-0.26,166.11c-1.65,70.29-22.49,134.22-73.36,184.71
		c-40.55,40.25-91.27,60.98-147.68,69.37c-33.89,5.04-67.97,5.18-101.53,2.36c-94.15-7.91-170.97-46.68-215.69-134.2
		c-18.33-35.87-25.24-75.07-27.47-115.58c-6.35-115.82-0.64-231.69-3.14-347.49c-0.31-14.49,3.26-19.43,18.53-19.11
		c46.85,1,93.74,0.75,140.6,0.08c11.16-0.16,14.05,2.64,14,13.92c-0.48,101.69-1.26,203.4,0.3,305.08
		c0.49,31.85,2.01,64.28,15.09,94.94c14.98,35.13,40.77,56.05,83.39,59.08c26.26,1.87,52.07,1.19,75.75-13.42
		c25.14-15.51,38.1-38.81,45.72-66.18c7.9-28.36,6.36-57.35,6.36-86.26c0-97.44,0.22-194.87-0.29-292.31
		c-0.06-11.77,2.53-15.09,14.68-14.89c47.39,0.8,94.8,0.67,142.2,0.06c10.62-0.14,13.11,2.97,13.02,13.23
		C3473.49,1769.03,3473.74,1829.2,3473.74,1889.36z"/>
	<path class="st0" d="M697.53,1685.79c75.4,0.4,144.56,16.67,205.34,61.03c18.06,13.18,34.34,28.17,49.36,44.68
		c5.37,5.9,4.77,10.09-1.12,15.36c-32.05,28.6-63.99,57.35-95.61,86.42c-7.39,6.8-10.02,0.33-13.65-3.48
		c-26.35-27.69-56.68-48.85-94.64-57.1c-65.73-14.28-147.35,3.33-186.41,77.48c-39.85,75.63-28.52,201.68,71.31,245.58
		c63.54,27.94,143.54,19.82,199.4-36.45c17.86-17.99,18.46-18.43,37.16-2.04c27.13,23.77,53.06,48.93,80.39,72.47
		c9.92,8.55,6.92,13.64,0.01,21.37c-41.58,46.51-93.47,76.15-153.43,90.65c-77.37,18.7-155.18,17.54-229.64-11.55
		c-108.59-42.43-176.64-121.65-194.66-237.93c-16.41-105.87,9.64-200.69,88.53-276.72c50.31-48.48,111.7-75.34,180.58-85.98
		C659.94,1686.55,679.53,1687.03,697.53,1685.79z"/>
	<path class="st0" d="M2356.68,2298.76c-4.21,4.08-9.25,2.65-13.89,2.66c-50.05,0.09-100.09-0.26-150.13,0.31
		c-10.19,0.12-14.73-3.23-18.4-12.55c-30.82-78.08-62.15-155.95-93.37-233.86c-24.92-62.18-49.89-124.33-75.78-188.83
		c-19.37,48.27-37.79,94.22-56.24,140.16c-37.95,94.46-75.89,188.93-113.92,283.36c-2.49,6.18-4.36,11.87-14,11.76
		c-54.27-0.63-108.55-0.3-165.53-0.3c11.27-25.98,21.8-50.51,32.55-74.95c35.08-79.76,70.15-159.54,105.42-239.22
		c26.08-58.92,52.59-117.65,78.67-176.58c13.67-30.88,27.26-61.82,40-93.09c5.81-14.25,12.97-21.43,30.28-20.85
		c45.2,1.53,90.49,0.79,135.74,0.3c9.36-0.1,14.27,2.84,18.01,11.41c42.46,97.13,85.08,194.19,128,291.12
		c38.91,87.89,78.26,175.59,117.35,263.4C2346.71,2274.89,2351.63,2286.91,2356.68,2298.76z"/>
	<path class="st1" d="M3588.78,2155.59c0-42.58,1.03-85.2-0.51-127.73c-0.62-17.07,5.08-19.39,20.17-19.23
		c74.01,0.78,148.02,0.32,222.04,0.37c24.62,0.02,48.67-3.11,72.78-8.67c39.16-9.02,61.06-53.27,53.68-93.35
		c-4.72-25.63-14.47-46.9-37.01-59.69c-17.65-10.02-37.93-13.87-58.35-13.92c-86.26-0.22-172.52-0.28-258.78,0.15
		c-10.64,0.05-14.6-1.8-14.34-13.56c0.83-37.24,0.63-74.52,0.09-111.77c-0.14-9.49,1.84-12.59,12.09-12.54
		c88.92,0.45,177.87-1.12,266.75,0.8c50.29,1.09,100.27,8.51,146.37,31.41c67.13,33.34,108.85,86.88,117.52,161.16
		c8.5,72.83-8.64,139.82-65.77,190.86c-34.19,30.55-75.26,48.08-120.28,57.02c-56.2,11.16-112.93,4.66-169.4,5.89
		c-11.82,0.26-15.04,2.78-14.81,14.81c0.81,43.1-0.13,86.23,0.59,129.34c0.22,12.89-3.99,16.38-16.51,16.22
		c-47.91-0.64-95.85-0.64-143.76,0.03c-11,0.15-12.9-3.56-12.79-13.45C3589.06,2245.02,3588.78,2200.3,3588.78,2155.59z"/>
	<path class="st0" d="M2588.59,1697.53c84.69,0,169.38,0.26,254.06-0.27c12.89-0.08,17.56,2.85,17.17,16.63
		c-1,35.11-0.78,70.28-0.07,105.41c0.22,11.04-2.58,14.4-13.99,14.27c-52.19-0.62-104.4,0.13-156.59-0.58
		c-11.91-0.16-14.89,2.78-14.85,14.78c0.46,145.36,0.12,290.72,0.59,436.08c0.04,13.27-2.06,18.22-16.96,17.84
		c-45.78-1.16-91.62-1.18-137.4-0.02c-15.74,0.4-17.99-5.35-17.95-19.13c0.44-144.29,0.09-288.59,0.57-432.88
		c0.04-12.92-2.5-16.99-16.24-16.74c-51.65,0.93-103.33-0.07-154.98,0.69c-12.39,0.18-14.96-3.6-14.71-15.2
		c0.76-35.66,0.73-71.35,0.01-107.01c-0.23-11.17,2.84-14.19,14.07-14.13C2417.08,1697.74,2502.83,1697.53,2588.59,1697.53z"/>
</g>
</svg>
